# xmcd
#
# Track frame offsets: 
#        150
#        14583
#        35518
#        49180
#        67095
#        83385
#        100670
#        121040
#        130419
#        143047
#        156340
#        174463
#        189339
#
# Disc length: 2686 seconds
#
# Revision: 0
# Processed by: cddbd v1.5.2PL0 Copyright (c) Steve Scherf et al.
# Submitted via: ExactAudioCopyFreeDBPlugin 1.0
#
DISCID=a80a7c0d
DTITLE=Colin James - Blue Highways
DYEAR=2016
DGENRE=Blues
TTITLE0=Boogie Funk
TTITLE1=Watch Out
TTITLE2=Big Road Blues
TTITLE3=Bad Bad Whiskey
TTITLE4=Going Down
TTITLE5=Gypsy Woman
TTITLE6=Goin' Away
TTITLE7=Lonesome
TTITLE8=Hoodoo Man Blues
TTITLE9=Riding in the Moonlight-Mr.Luck
TTITLE10=Don't Miss Your Water
TTITLE11=Ain't Long For Day
TTITLE12=Last Fair Deal
EXTD=
EXTT0=
EXTT1=
EXTT2=
EXTT3=
EXTT4=
EXTT5=
EXTT6=
EXTT7=
EXTT8=
EXTT9=
EXTT10=
EXTT11=
EXTT12=
PLAYORDER=
